<?xml version="1.0" standalone="no"?>
<!DOCTYPE svg PUBLIC "-//W3C//DTD SVG 20010904//EN"
 "http://www.w3.org/TR/2001/REC-SVG-20010904/DTD/svg10.dtd">
<svg version="1.0" xmlns="http://www.w3.org/2000/svg"
 width="1796.000000pt" height="1796.000000pt" viewBox="0 0 1796.000000 1796.000000"
 preserveAspectRatio="xMidYMid meet">
<metadata>
Created by potrace 1.11, written by Peter Selinger 2001-2013
</metadata>
<g transform="translate(0.000000,1796.000000) scale(0.100000,-0.100000)"
fill="#000000" stroke="none">
<path d="M8861 14238 c-30 -11 -664 -372 -1410 -801 -1270 -730 -3505 -2015
-6071 -3489 -1338 -769 -1242 -712 -1300 -775 -114 -124 -103 -287 27 -403 48
-43 932 -553 6358 -3670 858 -493 1745 -1003 1970 -1133 439 -253 490 -276
584 -262 25 4 60 13 76 19 17 7 1853 1061 4080 2341 2228 1281 4183 2404 4345
2498 162 93 314 184 337 203 24 20 53 58 70 92 57 117 27 267 -70 346 -23 18
-1394 811 -3047 1761 -1653 950 -3603 2072 -4334 2493 -730 420 -1352 773
-1382 783 -71 25 -163 24 -233 -3z m2447 -1926 c10 -10 26 -50 35 -90 l17 -72
-36 -72 c-74 -148 -111 -203 -147 -220 l-35 -17 -15 44 -15 44 57 78 c59 82
91 140 91 167 0 9 -7 33 -15 52 -13 31 -13 40 0 70 16 38 36 43 63 16z m-344
-117 c45 -22 66 -51 73 -103 5 -37 4 -39 -27 -46 -27 -5 -38 -1 -67 24 l-34
30 -97 -5 c-158 -10 -299 -33 -468 -76 -87 -23 -169 -43 -180 -46 -19 -4 -23
-14 -28 -71 -24 -234 -43 -370 -91 -632 -97 -532 -141 -702 -227 -875 -83
-165 -113 -204 -224 -290 l-104 -80 -95 -8 c-89 -8 -97 -7 -137 15 -54 30
-108 102 -148 197 l-32 75 4 155 c4 142 8 165 36 252 35 106 87 177 155 214
44 23 81 11 91 -32 6 -23 3 -32 -22 -53 -17 -14 -45 -34 -64 -45 -115 -69
-148 -412 -55 -578 34 -62 67 -81 145 -85 60 -3 73 -1 132 30 152 79 264 295
376 722 52 198 86 383 114 621 11 94 25 204 31 245 10 72 5 180 -9 180 -4 0
-86 -31 -182 -70 -157 -63 -504 -236 -587 -293 -39 -27 -73 -84 -73 -125 0
-31 -14 -42 -56 -42 -17 0 -25 7 -30 26 -11 42 2 112 27 150 28 41 159 141
274 210 299 177 863 358 1330 428 67 10 211 -1 249 -19z m-1939 -40 c125 -21
207 -110 209 -230 l1 -60 -36 -3 c-44 -4 -56 10 -68 74 -10 52 -26 69 -81 84
-46 13 -193 12 -250 -1 -123 -28 -241 -117 -311 -233 -78 -129 -81 -137 -76
-201 6 -87 38 -141 189 -320 73 -86 152 -180 176 -209 97 -115 162 -260 163
-359 1 -40 -13 -88 -55 -202 l-57 -151 -108 -96 -107 -96 -190 -52 -189 -52
-77 15 c-199 39 -355 167 -420 343 -17 48 -21 82 -22 189 -1 157 14 231 51
248 40 18 56 -12 49 -88 -19 -194 -19 -212 3 -283 38 -125 142 -231 264 -267
124 -37 361 -11 480 52 76 40 185 154 232 243 39 73 40 78 40 175 0 135 -16
165 -191 360 -40 44 -122 145 -183 224 -104 135 -111 149 -127 219 -19 86 -14
169 15 254 26 77 43 107 101 180 100 125 240 218 360 237 116 19 130 19 215 6z
m3458 -173 c55 -24 105 -75 130 -132 27 -61 25 -164 -7 -367 -35 -218 -114
-443 -231 -659 -83 -153 -264 -292 -401 -310 -95 -11 -195 23 -224 76 -8 15
-5 25 14 46 l23 28 61 -18 c124 -38 224 -3 347 119 75 76 117 146 179 299 41
102 44 121 19 111 -10 -4 -63 -19 -118 -34 l-100 -27 -63 19 c-55 17 -68 25
-103 73 -106 140 -106 345 1 555 52 103 56 107 129 156 68 45 127 73 186 87
35 8 114 -2 158 -22z m-874 1 c23 -16 24 -19 18 -117 -9 -150 -36 -284 -156
-781 l-109 -450 137 -6 c79 -3 151 -12 172 -20 34 -13 35 -16 27 -46 -13 -49
-40 -53 -333 -53 -158 0 -284 -5 -319 -12 -52 -10 -59 -9 -77 9 -11 10 -22 35
-25 55 -6 31 -3 38 21 54 23 15 48 18 151 17 78 0 129 3 139 11 8 6 20 38 26
71 6 33 44 193 84 355 40 162 85 351 99 418 28 132 68 364 63 368 -1 2 -23
-10 -49 -27 -61 -40 -99 -43 -111 -8 -22 58 28 128 114 161 57 22 99 22 128 1z
m-5069 -101 c21 -17 22 -22 12 -51 -6 -17 -29 -53 -51 -79 -79 -95 -121 -182
-176 -369 -51 -170 -58 -233 -53 -464 5 -227 17 -283 80 -389 67 -110 164
-123 281 -36 32 24 139 152 169 203 23 38 22 30 13 290 -6 147 -4 174 19 305
48 259 126 360 237 302 41 -21 57 -64 65 -176 6 -78 3 -107 -15 -178 -34 -133
-111 -370 -138 -427 -30 -64 -40 -147 -24 -196 32 -97 129 -177 215 -177 73 0
125 30 212 123 140 148 222 281 263 424 11 37 33 107 50 154 57 165 70 298 46
473 l-18 127 21 21 c19 20 22 20 45 6 98 -65 65 -532 -57 -815 -51 -117 -206
-396 -249 -447 -90 -107 -227 -185 -327 -186 -108 0 -120 8 -216 141 -48 66
-90 118 -94 117 -4 -2 -34 -37 -67 -78 -43 -54 -82 -90 -141 -129 -74 -48 -87
-54 -135 -53 -70 0 -116 20 -177 78 -61 57 -92 120 -128 261 -25 100 -27 123
-26 298 0 179 2 200 36 362 31 146 46 194 98 313 35 78 61 143 59 145 -5 4
-220 -34 -438 -79 -250 -51 -506 -141 -651 -229 -155 -93 -258 -191 -294 -278
-7 -19 -21 -76 -31 -127 -17 -92 -33 -122 -60 -122 -24 0 -45 55 -45 117 0 33
10 91 24 135 20 65 35 91 97 165 59 71 97 104 192 168 167 113 178 118 328
175 180 69 275 94 524 141 247 47 312 56 421 58 66 1 86 -3 104 -17z m33
-1898 c175 -20 400 -95 488 -162 85 -63 154 -146 201 -239 33 -67 43 -99 51
-173 19 -165 -20 -359 -110 -540 -51 -104 -66 -124 -152 -210 -123 -123 -225
-177 -396 -214 -55 -11 -70 -10 -158 10 -54 12 -108 31 -119 41 -60 54 -107
164 -94 218 3 13 18 32 32 41 24 16 26 16 47 -4 11 -12 35 -49 51 -83 45 -91
68 -104 174 -103 150 2 278 67 406 205 114 123 170 260 196 479 22 179 -18
308 -128 416 -117 116 -316 184 -593 204 -209 15 -365 4 -624 -46 -318 -62
-449 -101 -620 -185 -186 -91 -246 -144 -261 -229 -11 -61 -48 -86 -85 -57
-39 30 -51 96 -25 145 8 15 40 52 72 82 164 154 348 240 719 333 227 57 226
57 495 72 306 17 285 17 433 -1z m4477 -94 c26 -26 26 -33 -14 -136 -77 -204
-246 -660 -246 -667 0 -18 31 -4 50 24 12 16 60 64 107 105 93 81 140 101 201
87 36 -8 37 -11 60 -92 l24 -84 -41 -161 c-49 -198 -63 -277 -59 -341 3 -49 4
-50 37 -53 18 -2 47 2 63 9 32 13 118 107 217 237 40 53 71 84 88 88 62 16 81
-46 36 -113 -76 -112 -208 -267 -251 -294 -53 -34 -130 -59 -179 -59 -46 0
-117 69 -133 130 -11 40 -8 64 24 225 20 99 47 224 60 278 13 53 19 97 14 97
-20 0 -97 -61 -153 -122 -114 -123 -240 -309 -329 -487 -38 -74 -53 -95 -81
-108 -39 -19 -57 -10 -73 36 -9 24 7 79 103 367 108 324 321 897 371 996 32
62 67 75 104 38z m-4656 -181 c14 -11 26 -28 26 -37 0 -9 -40 -141 -90 -292
-115 -352 -143 -451 -180 -635 -17 -82 -35 -163 -40 -180 -5 -16 -14 -49 -20
-72 -9 -34 -15 -43 -33 -43 -46 0 -52 13 -55 124 -4 97 -1 117 47 309 50 202
174 598 231 739 26 65 58 108 80 108 4 0 19 -9 34 -21z m3244 -180 c4 -33 -32
-79 -63 -79 -55 0 -65 18 -44 79 11 30 13 32 58 29 41 -3 46 -6 49 -29z m492
-167 c0 -4 63 -72 140 -151 161 -165 190 -213 198 -320 5 -76 -9 -147 -45
-231 -37 -86 -175 -190 -279 -209 -117 -22 -214 38 -247 154 -19 67 -14 75 41
75 27 0 37 -7 67 -49 40 -56 50 -61 111 -61 80 0 162 59 206 149 33 67 37 185
9 243 -23 49 -174 204 -189 195 -5 -4 -67 -113 -138 -243 -127 -232 -131 -238
-221 -324 -95 -91 -191 -150 -245 -150 -34 0 -94 24 -122 48 -10 9 -34 41 -53
70 -18 28 -38 52 -44 52 -6 0 -33 -19 -60 -43 -65 -57 -144 -103 -201 -119
-42 -11 -53 -10 -95 8 -97 40 -122 146 -78 334 51 222 66 303 63 344 l-3 41
-78 -75 c-105 -99 -184 -206 -313 -424 -59 -100 -120 -194 -136 -209 -28 -28
-28 -28 -59 -10 -16 10 -37 25 -45 35 -14 15 -20 14 -82 -15 -89 -40 -143 -41
-205 -1 -40 25 -51 39 -74 97 -14 37 -29 67 -33 67 -3 0 -22 -16 -41 -36 -39
-41 -121 -97 -194 -130 -131 -62 -241 -4 -275 144 -15 65 -8 119 31 237 67
199 177 329 358 420 46 23 62 26 106 20 43 -5 59 -13 89 -44 45 -46 54 -88 32
-161 -9 -29 -15 -54 -13 -55 1 0 14 -6 30 -13 46 -20 52 -48 33 -159 -19 -117
-21 -219 -3 -252 20 -39 40 -46 89 -32 33 10 64 35 134 105 111 112 142 169
224 411 60 177 75 204 116 205 37 0 47 -24 40 -93 -3 -34 -7 -73 -9 -87 -4
-43 26 -31 82 33 106 120 210 177 268 146 41 -22 63 -67 63 -129 0 -55 -55
-340 -86 -446 -16 -57 -15 -137 3 -155 15 -15 98 15 144 52 57 45 161 178 198
253 17 34 39 100 50 147 27 114 78 253 101 274 23 21 55 12 76 -20 15 -22 14
-29 -5 -87 -65 -199 -93 -323 -98 -450 l-6 -126 27 -27 c22 -22 33 -26 59 -21
141 28 382 367 491 691 15 44 36 88 48 98 21 18 48 23 48 9z m-4115 -1257 c75
-26 84 -32 122 -85 l42 -57 7 -145 c8 -164 4 -191 -30 -214 -20 -13 -29 -13
-48 -3 -13 7 -26 17 -30 23 -4 6 -5 66 -1 133 6 117 5 123 -19 165 -41 68 -62
82 -121 81 -226 -3 -503 -194 -690 -476 -91 -137 -224 -433 -253 -565 -25
-111 -30 -287 -9 -357 30 -105 73 -175 159 -261 65 -65 98 -89 166 -122 145
-69 202 -77 530 -75 541 5 869 52 1392 204 75 21 143 39 152 39 45 0 63 -77
24 -102 -44 -28 -195 -76 -333 -107 -589 -129 -765 -155 -1110 -166 -197 -7
-363 6 -526 40 -291 61 -510 266 -574 538 -8 34 -15 110 -15 169 0 91 6 131
40 270 33 134 52 187 106 298 160 330 391 589 639 716 88 46 160 72 233 84 55
9 46 11 147 -25z m6673 -110 c17 -37 15 -58 -14 -141 -15 -41 -25 -77 -22 -79
3 -3 63 8 133 24 152 34 182 29 197 -36 5 -19 -4 -25 -72 -52 -74 -29 -242
-71 -285 -71 -43 0 -62 -42 -164 -357 -104 -322 -121 -393 -121 -501 0 -82 25
-112 95 -112 40 0 51 5 92 43 25 23 89 99 140 170 90 120 123 150 151 133 5
-3 12 -27 16 -53 6 -46 4 -50 -55 -138 -89 -130 -190 -230 -258 -256 -71 -26
-139 -27 -191 -4 -33 15 -47 30 -71 76 -16 32 -32 60 -36 62 -5 3 -69 -33
-143 -79 -74 -46 -143 -84 -154 -84 -40 0 -125 48 -147 82 -18 30 -20 44 -16
153 4 99 10 137 35 215 36 110 55 210 50 264 l-3 38 -67 -61 c-81 -75 -152
-163 -211 -262 -108 -180 -226 -366 -250 -391 -17 -18 -36 -28 -55 -28 -25 0
-30 5 -41 40 -6 21 -16 42 -22 46 -6 3 -41 -8 -77 -24 -103 -48 -183 -65 -279
-60 -72 4 -93 10 -161 44 -73 37 -79 42 -110 104 -33 63 -34 68 -30 165 5 117
24 166 114 302 122 183 315 284 432 224 45 -23 46 -26 57 -162 l6 -77 -75
-113 c-57 -88 -85 -121 -123 -145 -73 -48 -143 -80 -208 -99 -33 -10 -62 -19
-64 -21 -8 -8 44 -56 80 -74 122 -63 299 -12 450 128 89 82 106 113 178 313
77 214 80 221 98 241 19 21 52 23 76 6 16 -12 16 -20 -3 -122 -17 -94 -19
-132 -7 -115 130 171 236 259 313 259 62 0 114 -61 114 -134 0 -44 -54 -303
-80 -388 -19 -61 -26 -169 -14 -202 14 -37 107 -2 185 71 50 47 139 184 178
277 25 57 171 521 171 541 0 10 -10 15 -31 15 -53 0 -89 26 -89 65 0 23 76 66
140 80 48 10 76 39 96 99 48 147 123 226 152 161z m-4357 5 c25 -14 25 -64 -1
-132 -21 -55 -25 -88 -12 -88 4 1 57 11 117 24 146 30 184 20 185 -46 0 -38
-20 -47 -199 -84 -94 -20 -164 -40 -180 -52 -21 -16 -41 -65 -109 -273 -145
-442 -175 -655 -95 -675 53 -14 104 14 199 110 107 109 151 185 187 331 32
129 86 275 103 282 27 10 84 -7 84 -25 0 -16 -10 -54 -79 -317 -39 -146 -46
-289 -18 -342 15 -29 23 -33 58 -33 57 0 86 18 175 113 89 94 137 175 179 307
31 97 145 331 159 327 6 -2 19 -15 30 -30 19 -26 19 -31 7 -100 -27 -146 -34
-143 74 -34 100 101 147 133 212 142 34 5 42 2 79 -34 l42 -40 -15 -128 c-8
-71 -28 -177 -46 -238 -25 -88 -31 -129 -31 -207 -1 -53 3 -100 7 -104 11 -11
80 26 150 81 78 61 138 141 198 260 69 139 120 210 203 283 213 190 401 154
383 -72 l-6 -71 32 -20 c50 -32 47 -60 -39 -361 -70 -246 -84 -283 -160 -436
-98 -199 -135 -247 -215 -283 -57 -25 -60 -26 -94 -9 -57 27 -44 65 39 118 69
44 96 80 151 205 25 56 59 129 75 162 17 32 30 72 30 89 0 16 -1 30 -2 30 -2
0 -55 -18 -118 -40 -63 -22 -128 -40 -143 -40 -49 0 -95 27 -129 76 -18 25
-38 53 -44 62 -10 14 -20 9 -75 -38 -85 -71 -149 -100 -221 -100 -46 0 -62 5
-88 26 -63 53 -77 115 -56 246 9 51 29 140 46 198 17 58 34 143 37 190 l6 84
-39 -31 c-56 -45 -137 -132 -169 -183 -15 -25 -54 -81 -85 -125 -32 -44 -97
-146 -145 -227 -47 -80 -95 -154 -106 -164 -18 -16 -21 -16 -52 -1 -17 9 -40
22 -49 29 -13 10 -31 8 -90 -10 -107 -31 -125 -34 -168 -22 -45 12 -90 61
-117 127 -10 24 -21 43 -24 43 -3 0 -34 -29 -69 -65 -82 -86 -139 -115 -223
-115 -80 0 -119 23 -165 100 -18 30 -36 56 -40 57 -4 2 -41 -24 -82 -57 -97
-78 -151 -104 -215 -104 -64 0 -116 30 -141 82 -30 60 -23 149 35 406 28 126
50 231 47 233 -10 10 -74 -27 -103 -60 -17 -20 -123 -173 -234 -339 -111 -167
-210 -308 -218 -315 -23 -18 -38 -16 -62 8 -23 23 -22 56 2 135 21 71 13 76
-78 49 -43 -13 -98 -29 -121 -35 -25 -7 -62 -28 -85 -49 -73 -66 -111 -89
-165 -100 -150 -31 -260 7 -315 108 -53 97 -44 239 24 380 36 74 55 98 163
203 128 126 178 158 242 158 96 -1 164 -80 190 -222 15 -77 15 -97 0 -213 -8
-71 -13 -131 -11 -133 2 -3 43 14 89 36 107 51 165 107 189 182 51 161 111
307 132 327 29 26 59 21 82 -13 14 -23 13 -30 -15 -112 -17 -48 -32 -94 -34
-102 -7 -32 22 -12 66 47 54 72 131 143 192 179 41 24 46 25 100 13 106 -24
113 -71 49 -344 -29 -126 -49 -234 -52 -292 l-6 -93 33 0 c53 0 114 36 181
107 109 117 165 225 194 374 13 66 82 269 140 411 5 13 -3 18 -46 27 -65 14
-79 25 -79 62 0 36 31 57 100 68 78 12 99 34 153 157 58 132 77 151 128 124z
m339 -340 c38 -20 -14 -110 -64 -110 -49 0 -61 51 -21 94 25 27 54 33 85 16z"/>
<path d="M12251 11859 c-108 -55 -200 -190 -222 -325 -30 -184 39 -300 176
-298 62 0 111 23 175 81 60 54 80 85 125 197 30 76 35 98 35 173 0 145 -34
183 -170 190 -63 4 -82 1 -119 -18z"/>
<path d="M7003 11468 c-33 -36 -63 -105 -79 -177 -15 -72 -19 -298 -5 -319 5
-9 21 19 49 85 64 155 88 274 76 377 -4 31 -10 56 -14 56 -3 0 -16 -10 -27
-22z"/>
<path d="M7817 9153 c-130 -69 -240 -217 -281 -379 -35 -137 -11 -204 74 -204
56 0 83 17 167 102 80 82 150 185 193 285 l29 68 -32 7 c-41 8 -53 27 -62 93
-3 30 -10 57 -13 59 -4 2 -38 -12 -75 -31z"/>
<path d="M10957 7280 c-63 -24 -136 -81 -181 -140 -39 -51 -121 -218 -112
-227 3 -4 33 1 67 11 182 50 292 164 293 305 1 35 -3 65 -9 67 -5 2 -32 -5
-58 -16z"/>
<path d="M6513 7270 c-68 -41 -107 -171 -84 -282 16 -74 46 -118 101 -146 55
-28 59 -24 89 87 37 136 21 309 -32 346 -28 19 -35 19 -74 -5z"/>
<path d="M10180 7261 c-77 -24 -134 -77 -214 -200 -71 -110 -88 -161 -90 -262
-1 -103 13 -129 73 -129 75 1 127 43 236 193 55 75 113 162 129 193 l29 55
-36 30 c-22 18 -38 42 -42 62 -15 72 -22 77 -85 58z"/>
<path d="M6268 7034 c-3 -5 -18 -46 -32 -92 -32 -103 -35 -188 -6 -224 42 -54
130 -73 196 -42 60 29 60 37 -1 98 -51 50 -97 130 -142 245 -5 14 -12 21 -15
15z"/>
</g>
</svg>
